<svg width="902" height="263" viewBox="0 0 902 263" fill="none" xmlns="http://www.w3.org/2000/svg">
<path d="M872 0C888.569 1.35939e-05 902 13.4315 902 30V233C902 249.569 888.569 263 872 263H30C13.4315 263 4.02688e-09 249.569 0 233V30C1.06309e-06 13.4315 13.4315 0 30 0H872ZM237.473 115.103C230.715 115.103 224.535 116.875 218.932 120.418C213.328 123.879 208.837 128.576 205.458 134.51C202.162 140.361 200.514 146.83 200.514 153.917C200.514 161.004 202.162 167.514 205.458 173.447C208.837 179.298 213.328 183.996 218.932 187.539C224.535 191 230.716 192.73 237.473 192.73C242.335 192.73 246.785 191.865 250.823 190.135C254.861 188.404 258.363 186.056 261.33 183.089V189.27C261.33 196.357 259.105 202.125 254.655 206.575C250.205 211.108 244.107 213.374 236.36 213.374C231.004 213.374 226.184 212.219 221.898 209.912C217.696 207.687 214.276 204.803 211.639 201.26L206.817 220.914C210.608 223.798 215.017 226.065 220.044 227.713C225.153 229.443 230.592 230.309 236.36 230.309C243.777 230.309 250.699 228.783 257.127 225.734C263.555 222.685 268.706 218.277 272.579 212.509C276.452 206.74 278.389 199.817 278.389 191.741V116.833H261.454V124.991C258.57 121.86 255.067 119.429 250.946 117.698C246.826 115.968 242.335 115.103 237.473 115.103ZM153.085 114.608C145.998 114.608 139.53 116.298 133.679 119.677C127.828 123.055 123.171 127.67 119.71 133.521C116.331 139.289 114.643 145.841 114.643 153.175C114.643 160.839 116.373 167.72 119.834 173.818C123.377 179.834 128.281 184.572 134.544 188.033C140.889 191.494 148.141 193.225 156.299 193.225C161.408 193.225 166.271 192.483 170.886 191C175.5 189.599 179.662 187.456 183.37 184.572L178.92 166.401C176.448 169.368 173.316 171.841 169.525 173.818C165.735 175.796 161.491 176.785 156.794 176.785C150.449 176.785 145.174 175.054 140.972 171.593C136.769 168.132 134.172 163.723 133.184 158.366C135.161 158.696 137.139 158.985 139.117 159.232C141.095 159.48 143.114 159.603 145.174 159.603H191.281V152.557C191.281 145.305 189.591 138.836 186.213 133.15C182.834 127.464 178.261 122.973 172.492 119.677C166.806 116.298 160.337 114.608 153.085 114.608ZM483.111 77.5254C475.036 77.5254 467.454 79.0496 460.367 82.0986C453.28 85.0653 447.017 89.1859 441.578 94.46C436.222 99.734 432.019 105.873 428.97 112.878C426.003 119.883 424.52 127.382 424.52 135.375C424.52 143.368 426.003 150.867 428.97 157.872C432.019 164.877 436.222 171.016 441.578 176.29C447.017 181.564 453.28 185.726 460.367 188.775C467.454 191.742 475.036 193.225 483.111 193.225C490.61 193.225 497.656 191.947 504.249 189.393C510.842 186.838 516.734 183.295 521.926 178.763L516.115 155.152C512.901 160.426 508.452 164.877 502.766 168.503C497.162 172.046 490.776 173.818 483.606 173.818C476.602 173.818 470.256 172.087 464.57 168.626C458.884 165.165 454.351 160.551 450.973 154.782C447.676 148.931 446.028 142.462 446.028 135.375C446.028 128.206 447.676 121.736 450.973 115.968C454.351 110.199 458.884 105.585 464.57 102.124C470.256 98.663 476.602 96.9316 483.606 96.9316C490.858 96.9317 497.286 98.7036 502.89 102.247C508.493 105.791 512.901 110.241 516.115 115.598L521.926 91.9873C516.734 87.3725 510.842 83.8296 504.249 81.3574C497.656 78.8028 490.61 77.5254 483.111 77.5254ZM570.813 114.608C563.562 114.608 556.887 116.38 550.789 119.924C544.773 123.467 539.994 128.206 536.45 134.139C532.907 140.072 531.135 146.665 531.135 153.917C531.135 161.169 532.907 167.761 536.45 173.694C539.994 179.628 544.773 184.367 550.789 187.91C556.887 191.453 563.603 193.225 570.938 193.225C578.271 193.225 584.946 191.453 590.962 187.91C596.978 184.367 601.757 179.628 605.301 173.694C608.927 167.679 610.74 161.086 610.74 153.917C610.74 146.583 608.927 139.99 605.301 134.139C601.757 128.205 596.978 123.467 590.962 119.924C584.946 116.38 578.23 114.608 570.813 114.608ZM751.401 114.608C744.315 114.608 737.846 116.298 731.995 119.677C726.144 123.055 721.487 127.67 718.026 133.521C714.648 139.289 712.959 145.841 712.959 153.175C712.959 160.839 714.689 167.72 718.15 173.818C721.694 179.834 726.597 184.572 732.86 188.033C739.206 191.494 746.457 193.225 754.615 193.225C759.724 193.225 764.587 192.483 769.202 191C773.817 189.599 777.978 187.456 781.687 184.572L777.236 166.401C774.764 169.368 771.633 171.841 767.842 173.818C764.051 175.796 759.807 176.785 755.11 176.785C748.765 176.785 743.491 175.054 739.288 171.593C735.085 168.132 732.489 163.723 731.5 158.366C733.478 158.696 735.456 158.985 737.434 159.232C739.411 159.48 741.43 159.603 743.49 159.603H789.598V152.557C789.598 145.305 787.908 138.836 784.529 133.15C781.151 127.464 776.577 122.973 770.809 119.677C765.122 116.298 758.653 114.608 751.401 114.608ZM827.137 114.608C821.615 114.608 816.877 115.721 812.922 117.946C809.049 120.089 806.082 122.931 804.021 126.475C801.961 130.018 800.932 133.892 800.932 138.095C800.932 142.709 801.961 146.459 804.021 149.343C806.164 152.145 808.677 154.329 811.562 155.895C814.446 157.378 816.959 158.573 819.102 159.479L829.361 163.312C830.927 163.888 832.493 164.712 834.059 165.783C835.624 166.772 836.407 168.379 836.407 170.604C836.407 172.582 835.624 174.271 834.059 175.672C832.575 176.99 830.186 177.65 826.89 177.65C822.522 177.65 818.278 176.455 814.157 174.065C810.119 171.593 806.905 168.626 804.516 165.165L799.571 183.954C802.538 186.921 806.494 189.228 811.438 190.876C816.383 192.442 821.203 193.225 825.9 193.225C834.059 193.225 840.693 191.041 845.802 186.674C850.993 182.224 853.59 176.455 853.59 169.368C853.59 164.341 852.477 160.385 850.252 157.501C848.109 154.617 845.514 152.392 842.465 150.826C839.416 149.178 836.613 147.901 834.059 146.994L824.417 143.286C822.192 142.462 820.586 141.473 819.597 140.319C818.608 139.166 818.113 137.93 818.113 136.611C818.113 134.881 818.814 133.397 820.215 132.161C821.616 130.843 823.758 130.184 826.643 130.184C830.104 130.184 833.688 131.213 837.396 133.273C841.105 135.251 844.277 138.053 846.914 141.679L851.488 123.385C849.181 120.913 845.761 118.852 841.229 117.204C836.779 115.474 832.081 114.608 827.137 114.608ZM329.602 115.103C322.844 115.103 316.664 116.875 311.061 120.418C305.457 123.879 300.966 128.576 297.587 134.51C294.291 140.361 292.643 146.83 292.643 153.917C292.643 161.004 294.291 167.514 297.587 173.447C300.966 179.298 305.457 183.996 311.061 187.539C316.664 191 322.844 192.73 329.602 192.73C334.463 192.73 338.955 191.865 343.075 190.135C347.196 188.322 350.699 185.891 353.583 182.842V191H370.518V116.833H353.583V124.991C350.699 121.86 347.196 119.429 343.075 117.698C338.955 115.968 334.463 115.103 329.602 115.103ZM679.298 72.333V122.52C676.414 120.212 673.158 118.399 669.532 117.08C665.989 115.762 662.116 115.103 657.913 115.103C651.073 115.103 644.852 116.875 639.248 120.418C633.644 123.879 629.153 128.576 625.774 134.51C622.478 140.361 620.83 146.83 620.83 153.917C620.83 161.004 622.478 167.514 625.774 173.447C629.153 179.298 633.644 183.996 639.248 187.539C644.852 191 651.073 192.73 657.913 192.73C662.693 192.73 667.142 191.865 671.263 190.135C675.383 188.404 678.886 186.056 681.771 183.089V191H698.705V72.333H679.298ZM51.8555 79.75V191H107.233V172.829H72.499V79.75H51.8555ZM388.974 72.333V191H408.381V72.333H388.974ZM570.813 132.161C574.851 132.161 578.478 133.15 581.691 135.128C584.905 137.106 587.46 139.743 589.355 143.039C591.251 146.253 592.198 149.879 592.198 153.917C592.198 157.872 591.251 161.499 589.355 164.795C587.46 168.091 584.905 170.727 581.691 172.705C578.478 174.683 574.851 175.672 570.813 175.672C566.858 175.672 563.273 174.683 560.06 172.705C556.846 170.727 554.291 168.091 552.396 164.795C550.5 161.499 549.553 157.872 549.553 153.917C549.553 149.879 550.5 146.253 552.396 143.039C554.291 139.743 556.846 137.106 560.06 135.128C563.273 133.15 566.858 132.161 570.813 132.161ZM239.945 132.285C243.818 132.285 247.321 133.273 250.452 135.251C253.666 137.229 256.221 139.866 258.116 143.162C260.012 146.376 260.959 149.961 260.959 153.917C260.959 157.872 260.012 161.499 258.116 164.795C256.221 168.009 253.666 170.604 250.452 172.582C247.321 174.56 243.777 175.549 239.821 175.549C235.948 175.549 232.405 174.56 229.191 172.582C226.06 170.604 223.546 168.009 221.65 164.795C219.755 161.499 218.808 157.872 218.808 153.917C218.808 149.961 219.755 146.376 221.65 143.162C223.546 139.866 226.06 137.229 229.191 135.251C232.405 133.273 235.99 132.285 239.945 132.285ZM332.074 132.285C335.947 132.285 339.45 133.273 342.581 135.251C345.795 137.229 348.35 139.866 350.245 143.162C352.14 146.376 353.088 149.961 353.088 153.917C353.088 157.872 352.14 161.499 350.245 164.795C348.35 168.009 345.795 170.604 342.581 172.582C339.45 174.56 335.906 175.549 331.95 175.549C328.077 175.549 324.534 174.56 321.32 172.582C318.189 170.604 315.675 168.009 313.779 164.795C311.884 161.499 310.937 157.872 310.937 153.917C310.937 149.961 311.884 146.376 313.779 143.162C315.675 139.866 318.189 137.229 321.32 135.251C324.534 133.273 328.119 132.285 332.074 132.285ZM660.262 132.285C664.135 132.285 667.637 133.273 670.769 135.251C673.982 137.229 676.537 139.866 678.433 143.162C680.328 146.376 681.275 149.961 681.275 153.917C681.275 157.872 680.328 161.499 678.433 164.795C676.537 168.009 673.982 170.604 670.769 172.582C667.637 174.56 664.093 175.549 660.138 175.549C656.265 175.549 652.721 174.56 649.508 172.582C646.376 170.604 643.862 168.009 641.967 164.795C640.071 161.499 639.124 157.872 639.124 153.917C639.124 149.961 640.071 146.376 641.967 143.162C643.862 139.866 646.376 137.229 649.508 135.251C652.722 133.273 656.306 132.285 660.262 132.285ZM152.962 130.307C157.989 130.307 162.274 131.75 165.817 134.634C169.443 137.518 171.874 141.35 173.11 146.129C171.297 145.799 169.402 145.553 167.424 145.388C165.446 145.223 163.345 145.141 161.12 145.141H145.174C141.054 145.141 136.892 145.552 132.689 146.376C134.008 141.597 136.481 137.723 140.106 134.757C143.732 131.79 148.018 130.307 152.962 130.307ZM751.278 130.307C756.305 130.307 760.59 131.75 764.134 134.634C767.76 137.518 770.191 141.35 771.427 146.129C769.614 145.799 767.718 145.553 765.74 145.388C763.763 145.223 761.661 145.141 759.437 145.141H743.49C739.37 145.141 735.208 145.552 731.006 146.376C732.324 141.597 734.797 137.723 738.423 134.757C742.049 131.79 746.334 130.307 751.278 130.307Z" fill="#5C47C4"/>
</svg>
