<svg width="806" height="263" viewBox="0 0 806 263" fill="none" xmlns="http://www.w3.org/2000/svg">
<path d="M776 0C792.569 0 806 13.4315 806 30V233C806 249.569 792.569 263 776 263H30C13.4315 263 4.02687e-09 249.569 0 233V30C1.06309e-06 13.4315 13.4315 0 30 0H776ZM249.788 143.533C248.634 145.841 247.481 148.189 246.327 150.579C245.173 152.886 243.978 155.688 242.742 158.984C241.671 155.606 240.558 152.639 239.404 150.085C238.333 147.53 237.221 145.099 236.067 142.792L223.706 116.833H202.692L239.775 194.708L256.092 165.042C257.493 162.652 258.77 160.262 259.924 157.872C261.16 155.482 262.355 152.845 263.509 149.961C264.745 152.845 265.94 155.482 267.094 157.872C268.247 160.262 269.483 162.652 270.802 165.042L287.242 194.708L324.325 116.833H304.301L291.939 142.792C290.868 145.099 289.755 147.489 288.602 149.961C287.53 152.351 286.418 155.359 285.265 158.984C284.193 155.606 283.08 152.722 281.927 150.332C280.773 147.942 279.66 145.676 278.589 143.533L264.003 114.114L249.788 143.533ZM390.809 77.5254C382.733 77.5254 375.151 79.0496 368.064 82.0986C360.977 85.0653 354.714 89.1859 349.275 94.46C343.919 99.734 339.716 105.873 336.667 112.878C333.7 119.883 332.217 127.382 332.217 135.375C332.217 143.368 333.7 150.867 336.667 157.872C339.716 164.877 343.919 171.016 349.275 176.29C354.714 181.564 360.977 185.726 368.064 188.775C375.151 191.742 382.733 193.225 390.809 193.225C398.308 193.225 405.354 191.947 411.946 189.393C418.539 186.838 424.431 183.295 429.623 178.763L423.812 155.152C420.599 160.426 416.149 164.877 410.463 168.503C404.859 172.046 398.473 173.818 391.304 173.818C384.299 173.818 377.954 172.087 372.268 168.626C366.582 165.165 362.049 160.551 358.67 154.782C355.374 148.931 353.726 142.462 353.726 135.375C353.726 128.206 355.374 121.736 358.67 115.968C362.049 110.199 366.582 105.585 372.268 102.124C377.954 98.663 384.299 96.9316 391.304 96.9316C398.555 96.9317 404.983 98.7036 410.587 102.247C416.191 105.791 420.599 110.241 423.812 115.598L429.623 91.9873C424.431 87.3725 418.539 83.8296 411.946 81.3574C405.354 78.8028 398.308 77.5254 390.809 77.5254ZM478.511 114.608C471.259 114.608 464.584 116.38 458.486 119.924C452.471 123.467 447.691 128.206 444.147 134.139C440.604 140.072 438.832 146.665 438.832 153.917C438.832 161.169 440.604 167.761 444.147 173.694C447.691 179.628 452.471 184.367 458.486 187.91C464.584 191.453 471.301 193.225 478.635 193.225C485.969 193.225 492.644 191.453 498.659 187.91C504.675 184.367 509.455 179.628 512.998 173.694C516.624 167.679 518.437 161.086 518.438 153.917C518.438 146.583 516.624 139.99 512.998 134.139C509.455 128.205 504.675 123.467 498.659 119.924C492.643 116.38 485.927 114.608 478.511 114.608ZM659.099 114.608C652.012 114.608 645.543 116.298 639.692 119.677C633.841 123.055 629.185 127.67 625.724 133.521C622.345 139.289 620.656 145.841 620.656 153.175C620.656 160.839 622.387 167.72 625.848 173.818C629.391 179.834 634.295 184.572 640.558 188.033C646.903 191.494 654.154 193.225 662.312 193.225C667.422 193.225 672.285 192.483 676.899 191C681.514 189.599 685.676 187.456 689.384 184.572L684.934 166.401C682.461 169.368 679.33 171.841 675.539 173.818C671.748 175.796 667.505 176.785 662.808 176.785C656.462 176.785 651.188 175.054 646.985 171.593C642.783 168.132 640.186 163.723 639.197 158.366C641.175 158.696 643.153 158.985 645.131 159.232C647.109 159.48 649.127 159.603 651.188 159.603H697.295V152.557C697.295 145.305 695.605 138.836 692.227 133.15C688.848 127.464 684.274 122.973 678.506 119.677C672.82 116.298 666.35 114.608 659.099 114.608ZM734.834 114.608C729.313 114.608 724.575 115.721 720.619 117.946C716.746 120.089 713.779 122.931 711.719 126.475C709.659 130.018 708.629 133.892 708.629 138.095C708.629 142.709 709.659 146.459 711.719 149.343C713.861 152.145 716.375 154.329 719.259 155.895C722.143 157.378 724.656 158.573 726.799 159.479L737.059 163.312C738.624 163.888 740.19 164.712 741.756 165.783C743.322 166.772 744.104 168.379 744.104 170.604C744.104 172.582 743.322 174.271 741.756 175.672C740.273 176.99 737.883 177.65 734.587 177.65C730.219 177.65 725.975 176.455 721.854 174.065C717.817 171.593 714.603 168.626 712.213 165.165L707.269 183.954C710.235 186.921 714.191 189.228 719.136 190.876C724.08 192.442 728.901 193.225 733.598 193.225C741.756 193.225 748.39 191.041 753.499 186.674C758.691 182.224 761.287 176.455 761.287 169.368C761.287 164.341 760.174 160.385 757.949 157.501C755.807 154.617 753.211 152.392 750.162 150.826C747.113 149.178 744.31 147.901 741.756 146.994L732.114 143.286C729.889 142.462 728.283 141.473 727.294 140.319C726.305 139.166 725.811 137.93 725.811 136.611C725.811 134.881 726.511 133.397 727.912 132.161C729.313 130.843 731.456 130.184 734.34 130.184C737.801 130.184 741.386 131.213 745.094 133.273C748.802 135.251 751.974 138.053 754.611 141.679L759.186 123.385C756.878 120.913 753.458 118.852 748.926 117.204C744.476 115.474 739.778 114.608 734.834 114.608ZM151.602 115.103C144.844 115.103 138.664 116.875 133.061 120.418C127.457 123.879 122.966 128.576 119.587 134.51C116.291 140.361 114.643 146.83 114.643 153.917C114.643 161.004 116.291 167.514 119.587 173.447C122.966 179.298 127.457 183.996 133.061 187.539C138.664 191 144.844 192.73 151.602 192.73C156.463 192.73 160.955 191.865 165.075 190.135C169.196 188.322 172.699 185.891 175.583 182.842V191H192.518V116.833H175.583V124.991C172.699 121.86 169.196 119.429 165.075 117.698C160.955 115.968 156.463 115.103 151.602 115.103ZM586.995 72.333V122.52C584.111 120.212 580.855 118.399 577.229 117.08C573.686 115.762 569.813 115.103 565.61 115.103C558.771 115.103 552.549 116.875 546.945 120.418C541.342 123.879 536.85 128.576 533.472 134.51C530.175 140.361 528.527 146.83 528.527 153.917C528.527 161.004 530.175 167.514 533.472 173.447C536.85 179.298 541.342 183.996 546.945 187.539C552.549 191 558.771 192.73 565.61 192.73C570.39 192.73 574.84 191.865 578.96 190.135C583.08 188.404 586.584 186.056 589.468 183.089V191H606.402V72.333H586.995ZM51.8555 79.75V191H107.233V172.829H72.499V79.75H51.8555ZM478.511 132.161C482.549 132.161 486.175 133.15 489.389 135.128C492.603 137.106 495.157 139.743 497.053 143.039C498.948 146.253 499.896 149.879 499.896 153.917C499.895 157.872 498.948 161.499 497.053 164.795C495.157 168.091 492.602 170.727 489.389 172.705C486.175 174.683 482.549 175.672 478.511 175.672C474.555 175.672 470.971 174.683 467.757 172.705C464.543 170.727 461.988 168.091 460.093 164.795C458.197 161.499 457.25 157.872 457.25 153.917C457.25 149.879 458.197 146.253 460.093 143.039C461.988 139.743 464.543 137.106 467.757 135.128C470.971 133.15 474.555 132.161 478.511 132.161ZM154.074 132.285C157.947 132.285 161.45 133.273 164.581 135.251C167.795 137.229 170.35 139.866 172.245 143.162C174.14 146.376 175.088 149.961 175.088 153.917C175.088 157.872 174.14 161.499 172.245 164.795C170.35 168.009 167.795 170.604 164.581 172.582C161.45 174.56 157.906 175.549 153.95 175.549C150.077 175.549 146.534 174.56 143.32 172.582C140.189 170.604 137.675 168.009 135.779 164.795C133.884 161.499 132.937 157.872 132.937 153.917C132.937 149.961 133.884 146.376 135.779 143.162C137.675 139.866 140.189 137.229 143.32 135.251C146.534 133.273 150.119 132.285 154.074 132.285ZM567.959 132.285C571.832 132.285 575.334 133.273 578.466 135.251C581.68 137.229 584.235 139.866 586.13 143.162C588.025 146.376 588.973 149.961 588.973 153.917C588.973 157.872 588.025 161.499 586.13 164.795C584.235 168.009 581.68 170.604 578.466 172.582C575.334 174.56 571.79 175.549 567.835 175.549C563.962 175.549 560.419 174.56 557.205 172.582C554.074 170.604 551.559 168.009 549.664 164.795C547.769 161.499 546.821 157.872 546.821 153.917C546.821 149.961 547.769 146.376 549.664 143.162C551.559 139.866 554.074 137.229 557.205 135.251C560.419 133.273 564.004 132.285 567.959 132.285ZM658.976 130.307C664.002 130.307 668.288 131.75 671.831 134.634C675.457 137.518 677.888 141.35 679.124 146.129C677.311 145.799 675.415 145.553 673.438 145.388C671.46 145.223 669.359 145.141 667.134 145.141H651.188C647.067 145.141 642.906 145.552 638.703 146.376C640.022 141.597 642.494 137.723 646.12 134.757C649.746 131.79 654.031 130.307 658.976 130.307Z" fill="#5C47C4"/>
</svg>
