<svg width="902" height="263" viewBox="0 0 902 263" fill="none" xmlns="http://www.w3.org/2000/svg">
<path d="M872 0C888.569 0 902 13.4315 902 30V233C902 249.569 888.569 263 872 263H30C13.4315 263 0 249.569 0 233V30C1.03082e-06 13.4315 13.4315 0 30 0H872Z" fill="#5C47C4"/>
<path d="M235.617 95.7695C240.479 95.7695 244.971 96.6348 249.091 98.3652C253.211 100.096 256.714 102.527 259.599 105.658V97.5H276.533V172.408C276.533 180.484 274.597 187.407 270.724 193.176C266.85 198.944 261.699 203.352 255.271 206.401C248.844 209.45 241.922 210.976 234.505 210.976C228.737 210.976 223.298 210.11 218.188 208.38C213.162 206.732 208.753 204.465 204.962 201.581L209.783 181.927C212.42 185.47 215.84 188.354 220.043 190.579C224.328 192.886 229.149 194.041 234.505 194.041C242.251 194.041 248.35 191.775 252.8 187.242C257.25 182.792 259.475 177.024 259.475 169.937V163.756C256.508 166.722 253.006 169.071 248.968 170.802C244.93 172.532 240.479 173.397 235.617 173.397C228.86 173.397 222.68 171.667 217.076 168.206C211.473 164.663 206.981 159.965 203.603 154.114C200.306 148.181 198.658 141.671 198.658 134.584C198.658 127.497 200.306 121.028 203.603 115.177C206.981 109.243 211.472 104.546 217.076 101.085C222.68 97.5416 228.86 95.7696 235.617 95.7695ZM151.229 95.2754C158.481 95.2754 164.951 96.965 170.637 100.344C176.405 103.64 180.979 108.131 184.357 113.817C187.736 119.503 189.426 125.972 189.426 133.224V140.27H143.318C141.258 140.27 139.239 140.147 137.262 139.899C135.284 139.652 133.306 139.363 131.328 139.033C132.317 144.39 134.913 148.799 139.116 152.26C143.319 155.721 148.593 157.452 154.938 157.452C159.635 157.452 163.879 156.463 167.67 154.485C171.461 152.508 174.592 150.035 177.064 147.068L181.515 165.239C177.806 168.123 173.645 170.266 169.03 171.667C164.415 173.15 159.553 173.892 154.443 173.892C146.285 173.892 139.034 172.161 132.688 168.7C126.426 165.239 121.522 160.501 117.979 154.485C114.517 148.387 112.787 141.506 112.787 133.842C112.787 126.508 114.476 119.956 117.854 114.188C121.316 108.337 125.972 103.722 131.823 100.344C137.674 96.9651 144.143 95.2754 151.229 95.2754ZM481.256 58.1924C488.755 58.1924 495.801 59.4698 502.394 62.0244C508.986 64.4966 514.879 68.0395 520.07 72.6543L514.26 96.2646C511.046 90.9082 506.638 86.4576 501.034 82.9141C495.431 79.3706 489.003 77.5987 481.751 77.5986C474.746 77.5986 468.401 79.33 462.715 82.791C457.029 86.2521 452.496 90.8663 449.117 96.6348C445.821 102.403 444.173 108.873 444.173 116.042C444.173 123.129 445.821 129.598 449.117 135.449C452.496 141.218 457.029 145.832 462.715 149.293C468.401 152.754 474.746 154.485 481.751 154.485C488.92 154.485 495.307 152.713 500.91 149.17C506.596 145.544 511.046 141.093 514.26 135.819L520.07 159.43C514.879 163.962 508.986 167.505 502.394 170.06C495.801 172.614 488.755 173.892 481.256 173.892C473.18 173.892 465.599 172.409 458.512 169.442C451.425 166.393 445.162 162.231 439.723 156.957C434.366 151.683 430.163 145.544 427.114 138.539C424.148 131.534 422.664 124.035 422.664 116.042C422.664 108.049 424.148 100.549 427.114 93.5449C430.163 86.5404 434.366 80.401 439.723 75.127C445.162 69.8529 451.425 65.7323 458.512 62.7656C465.599 59.7166 473.18 58.1924 481.256 58.1924ZM568.958 95.2754C576.375 95.2754 583.091 97.0474 589.106 100.591C595.122 104.134 599.902 108.872 603.445 114.806C607.071 120.657 608.885 127.25 608.885 134.584C608.885 141.753 607.071 148.346 603.445 154.361C599.902 160.295 595.122 165.034 589.106 168.577C583.091 172.12 576.416 173.892 569.082 173.892C561.748 173.892 555.032 172.12 548.934 168.577C542.918 165.034 538.138 160.295 534.595 154.361C531.051 148.428 529.279 141.836 529.279 134.584C529.279 127.332 531.051 120.739 534.595 114.806C538.138 108.872 542.918 104.134 548.934 100.591C555.032 97.0474 561.706 95.2754 568.958 95.2754ZM749.546 95.2754C756.798 95.2754 763.267 96.965 768.953 100.344C774.722 103.64 779.295 108.131 782.674 113.817C786.052 119.503 787.742 125.972 787.742 133.224V140.27H741.635C739.575 140.27 737.556 140.147 735.578 139.899C733.6 139.652 731.622 139.363 729.645 139.033C730.633 144.39 733.23 148.799 737.433 152.26C741.635 155.721 746.91 157.452 753.255 157.452C757.952 157.452 762.196 156.463 765.986 154.485C769.777 152.508 772.909 150.035 775.381 147.068L779.831 165.239C776.123 168.123 771.961 170.266 767.347 171.667C762.732 173.15 757.869 173.892 752.76 173.892C744.602 173.892 737.35 172.161 731.005 168.7C724.742 165.239 719.838 160.501 716.295 154.485C712.834 148.387 711.104 141.506 711.104 133.842C711.104 126.508 712.792 119.956 716.171 114.188C719.632 108.337 724.289 103.722 730.14 100.344C735.99 96.9651 742.459 95.2754 749.546 95.2754ZM825.281 95.2754C830.226 95.2754 834.923 96.1405 839.373 97.8711C843.905 99.5192 847.325 101.58 849.633 104.052L845.059 122.346C842.422 118.72 839.249 115.918 835.541 113.94C831.833 111.88 828.248 110.851 824.787 110.851C821.903 110.851 819.76 111.51 818.359 112.828C816.958 114.064 816.258 115.548 816.258 117.278C816.258 118.597 816.752 119.833 817.741 120.986C818.73 122.14 820.337 123.129 822.562 123.953L832.203 127.661C834.758 128.568 837.56 129.845 840.609 131.493C843.658 133.059 846.254 135.284 848.396 138.168C850.621 141.052 851.734 145.008 851.734 150.035C851.734 157.122 849.138 162.891 843.946 167.341C838.837 171.708 832.203 173.892 824.045 173.892C819.348 173.892 814.527 173.109 809.583 171.543C804.639 169.895 800.682 167.588 797.716 164.621L802.66 145.832C805.05 149.293 808.264 152.26 812.302 154.732C816.422 157.122 820.667 158.317 825.034 158.317C828.33 158.317 830.72 157.657 832.203 156.339C833.769 154.938 834.552 153.249 834.552 151.271C834.552 149.046 833.769 147.439 832.203 146.45C830.637 145.379 829.072 144.555 827.506 143.979L817.246 140.146C815.104 139.24 812.59 138.045 809.706 136.562C806.822 134.996 804.309 132.812 802.166 130.01C800.106 127.126 799.076 123.376 799.076 118.762C799.076 114.559 800.106 110.685 802.166 107.142C804.226 103.598 807.193 100.756 811.066 98.6133C815.022 96.3883 819.76 95.2754 825.281 95.2754ZM327.746 95.7695C332.608 95.7695 337.099 96.6348 341.22 98.3652C345.34 100.096 348.843 102.527 351.728 105.658V97.5H368.662V171.667H351.728V163.509C348.843 166.558 345.34 168.989 341.22 170.802C337.099 172.532 332.608 173.397 327.746 173.397C320.989 173.397 314.809 171.667 309.205 168.206C303.601 164.663 299.11 159.965 295.731 154.114C292.435 148.181 290.787 141.671 290.787 134.584C290.787 127.497 292.435 121.028 295.731 115.177C299.11 109.243 303.601 104.546 309.205 101.085C314.809 97.5416 320.989 95.7696 327.746 95.7695ZM696.85 171.667H679.915V163.756C677.031 166.723 673.528 169.071 669.407 170.802C665.287 172.532 660.837 173.397 656.058 173.397C649.218 173.397 642.996 171.667 637.393 168.206C631.789 164.663 627.298 159.965 623.919 154.114C620.623 148.181 618.975 141.671 618.975 134.584C618.975 127.497 620.623 121.028 623.919 115.177C627.298 109.243 631.789 104.546 637.393 101.085C642.996 97.5415 649.218 95.7695 656.058 95.7695C660.26 95.7695 664.133 96.4287 667.677 97.7471C671.303 99.0656 674.558 100.879 677.442 103.187V53H696.85V171.667ZM70.6436 153.496H105.378V171.667H50V60.417H70.6436V153.496ZM406.525 171.667H387.118V53H406.525V171.667ZM568.958 112.828C565.003 112.828 561.418 113.817 558.204 115.795C554.99 117.773 552.435 120.41 550.54 123.706C548.645 126.92 547.697 130.546 547.697 134.584C547.697 138.539 548.645 142.166 550.54 145.462C552.435 148.758 554.99 151.394 558.204 153.372C561.418 155.35 565.003 156.339 568.958 156.339C572.996 156.339 576.622 155.35 579.836 153.372C583.05 151.394 585.605 148.758 587.5 145.462C589.395 142.166 590.343 138.539 590.343 134.584C590.343 130.546 589.395 126.92 587.5 123.706C585.605 120.41 583.05 117.773 579.836 115.795C576.622 113.817 572.996 112.828 568.958 112.828ZM238.09 112.952C234.134 112.952 230.55 113.94 227.336 115.918C224.204 117.896 221.69 120.533 219.795 123.829C217.9 127.043 216.952 130.628 216.952 134.584C216.952 138.539 217.9 142.166 219.795 145.462C221.69 148.676 224.205 151.271 227.336 153.249C230.55 155.227 234.093 156.216 237.966 156.216C241.921 156.216 245.465 155.227 248.597 153.249C251.81 151.271 254.365 148.676 256.261 145.462C258.156 142.166 259.103 138.539 259.104 134.584C259.104 130.628 258.156 127.043 256.261 123.829C254.365 120.533 251.81 117.896 248.597 115.918C245.465 113.94 241.963 112.952 238.09 112.952ZM330.219 112.952C326.263 112.952 322.679 113.94 319.465 115.918C316.333 117.896 313.819 120.533 311.924 123.829C310.028 127.043 309.081 130.628 309.081 134.584C309.081 138.539 310.029 142.166 311.924 145.462C313.819 148.676 316.333 151.271 319.465 153.249C322.679 155.227 326.222 156.216 330.095 156.216C334.05 156.216 337.594 155.227 340.726 153.249C343.939 151.271 346.494 148.676 348.39 145.462C350.285 142.166 351.232 138.539 351.232 134.584C351.232 130.628 350.285 127.043 348.39 123.829C346.494 120.533 343.939 117.896 340.726 115.918C337.594 113.94 334.092 112.952 330.219 112.952ZM658.406 112.952C654.451 112.952 650.866 113.94 647.652 115.918C644.521 117.896 642.007 120.533 640.111 123.829C638.216 127.043 637.269 130.628 637.269 134.584C637.269 138.539 638.216 142.166 640.111 145.462C642.007 148.676 644.521 151.271 647.652 153.249C650.866 155.227 654.409 156.216 658.282 156.216C662.238 156.216 665.782 155.227 668.913 153.249C672.127 151.271 674.682 148.676 676.577 145.462C678.472 142.166 679.42 138.539 679.42 134.584C679.42 130.628 678.473 127.043 676.577 123.829C674.682 120.533 672.127 117.896 668.913 115.918C665.782 113.94 662.279 112.952 658.406 112.952ZM151.106 110.974C146.162 110.974 141.877 112.457 138.251 115.424C134.625 118.39 132.153 122.264 130.834 127.043C135.037 126.219 139.198 125.808 143.318 125.808H159.265C161.489 125.808 163.591 125.89 165.568 126.055C167.546 126.22 169.442 126.466 171.255 126.796C170.019 122.017 167.588 118.185 163.962 115.301C160.418 112.417 156.133 110.974 151.106 110.974ZM749.423 110.974C744.479 110.974 740.193 112.457 736.567 115.424C732.942 118.39 730.469 122.264 729.15 127.043C733.353 126.219 737.515 125.808 741.635 125.808H757.581C759.806 125.808 761.907 125.89 763.885 126.055C765.863 126.22 767.758 126.466 769.571 126.796C768.335 122.017 765.904 118.185 762.278 115.301C758.735 112.417 754.45 110.974 749.423 110.974Z" fill="white"/>
</svg>
